<svg width="44" height="51" viewBox="0 0 44 51" fill="none" xmlns="http://www.w3.org/2000/svg">
<path d="M3.0137 44.8561C1.26288 44.8561 0 46.1645 0 47.9281C0 49.6916 1.26288 51 3.0137 51H40.9289C42.7084 51 44 49.6916 44 47.9281C44 46.1645 42.7084 44.8561 40.9289 44.8561H22.6745C23.3059 44.7423 23.88 44.401 24.3392 43.9175L42.6797 25.9124C43.3686 25.2298 43.713 24.4618 43.713 23.6369C43.713 21.8734 42.4214 20.5934 40.6993 20.5934C39.8095 20.5934 39.0059 20.9632 38.4318 21.5321L32.5192 27.2777L24.8558 35.6118L25.1429 29.6386V3.15728C25.1429 1.27998 23.8513 0 22.0144 0C20.1487 0 18.8571 1.27998 18.8571 3.15728V29.6386L19.1442 35.6403L11.4808 27.2777L5.59687 21.5321C4.99413 20.9347 4.21918 20.5934 3.32942 20.5934C1.5786 20.5934 0.315721 21.8734 0.315721 23.6369C0.315721 24.4618 0.631442 25.2298 1.32029 25.9124L19.6608 43.9175C20.12 44.401 20.6941 44.7423 21.3255 44.8561H3.0137Z" fill="#2A2A2A"/>
</svg>
