<svg width="51" height="51" viewBox="0 0 51 51" fill="none" xmlns="http://www.w3.org/2000/svg">
<path d="M25.5 51C39.4472 51 51 39.4719 51 25.5C51 11.5528 39.4472 0 25.4753 0C11.5281 0 0 11.5528 0 25.5C0 39.4719 11.5528 51 25.5 51ZM25.5 47.0503C13.7251 47.0503 3.94966 37.2749 3.94966 25.5C3.94966 14.046 13.1573 4.51743 24.4879 3.97435C23.698 4.86302 23.6486 5.62827 23.5252 6.88722C22.6612 6.73911 21.7478 6.66505 21.1307 6.66505C19.4274 6.66505 17.9956 7.65247 15.3296 9.2817C12.6636 10.9109 14.5891 15.379 18.2672 13.6263C20.0198 12.7623 21.3282 12.318 22.0194 12.318C23.5005 12.318 30.3383 14.7125 30.3383 15.4037C30.3383 15.9468 29.2769 16.8107 28.1413 16.8107C26.2899 16.8107 22.9327 15.3049 18.8843 15.3049C13.6757 15.3049 9.01016 21.6244 9.01016 23.9201C9.01016 26.8083 13.8485 31.7454 16.317 31.7454C17.971 31.7454 19.7483 31.4492 21.0319 31.2517C21.6985 31.153 22.0687 31.2764 22.3403 31.8195C22.6612 32.486 22.908 33.3253 22.908 34.5595C22.908 36.8553 21.8712 44.5818 27.0799 44.5818C30.3136 44.5818 33.6709 38.8301 35.8925 35.1026C37.6946 32.0416 39.1263 29.6471 39.1263 27.8451C39.1263 25.5987 38.0402 24.3892 35.3742 22.7846C34.3621 22.1922 35.152 21.3282 35.8185 21.8466C37.4477 23.1549 38.4845 23.7473 39.5707 23.7473C41.2246 23.7473 43.6191 22.5624 46.3838 20.2667C46.8282 21.9453 47.0503 23.698 47.0503 25.5C47.0503 37.2749 37.2749 47.0503 25.5 47.0503ZM36.2381 12.9845C34.9545 12.9845 32.5106 11.6515 32.5106 10.6888C32.5106 9.8001 33.6462 9.57793 34.4361 9.57793C35.7444 9.57793 37.349 10.8616 37.349 11.7256C37.349 12.5649 36.8553 12.9845 36.2381 12.9845Z" fill="#1C1C1E"/>
</svg>
