<svg width="38" height="51" viewBox="0 0 38 51" fill="none" xmlns="http://www.w3.org/2000/svg">
<path d="M8.26363 2.94108H29.208C29.0601 1.02298 27.9399 0 25.8899 0H11.5818C9.5317 0 8.41157 1.02298 8.26363 2.94108ZM4.56507 9.14292H32.7586C32.4627 7.11826 31.4483 5.94609 29.1657 5.94609H8.15795C5.89655 5.94609 4.86096 7.11826 4.56507 9.14292ZM6.95328 51H31.5751C35.6329 51 38 48.613 38 44.0522V19.6072C38 15.0464 35.6118 12.6594 31.0467 12.6594H6.95328C2.38821 12.6594 0 15.0464 0 19.6072V44.0522C0 48.613 2.38821 51 6.95328 51ZM12.1735 37.3815C8.3693 37.3815 5.47386 39.4488 4.20578 41.8997V19.9908C4.20578 17.9235 5.28365 16.9219 7.22803 16.9219H30.772C32.7164 16.9219 33.7942 17.9235 33.7942 19.9908V41.2177C32.2091 39.1078 29.3348 37.4028 25.5306 37.4028C19.5495 37.4028 15.7664 41.7079 15.7664 45.0965C15.7664 45.8211 15.9355 46.3753 16.2102 46.7376H13.5261C13.3571 46.2261 13.2725 45.6506 13.2725 45.0539C13.2725 42.6243 14.4349 40.2374 16.4216 38.4045C15.3014 37.7438 13.8643 37.3815 12.1735 37.3815ZM25.5306 34.9733C28.0667 34.9733 30.1802 32.7142 30.1802 29.7944C30.1802 26.9173 28.0667 24.7434 25.5306 24.7434C23.0367 24.7434 20.8598 26.9812 20.881 29.8157C20.881 32.7142 23.0156 34.9733 25.5306 34.9733ZM12.1735 35.2503C14.3715 35.2503 16.2314 33.2683 16.2314 30.7321C16.2314 28.2173 14.3715 26.3418 12.1735 26.3418C9.97553 26.3418 8.09455 28.2599 8.11568 30.7321C8.11568 33.2683 9.97553 35.2503 12.1735 35.2503Z" fill="#2A2A2A"/>
</svg>
