<svg width="58" height="47" viewBox="0 0 58 47" fill="none" xmlns="http://www.w3.org/2000/svg">
<path d="M55.7364 9.91385L34.8726 1.3111C32.6303 0.387314 30.7938 -0.0360882 29 0.00240291C27.2062 -0.0360882 25.3697 0.387314 23.1274 1.3111L2.26362 9.91385C0.768778 10.5105 0 11.6267 0 12.7622C0 13.9169 0.768778 15.0139 2.26362 15.6105L10.528 18.9785L24.3873 13.1471C24.3019 13.0124 24.2592 12.8969 24.2592 12.7622C24.2592 11.3573 26.6296 10.3565 29.0641 10.3565C31.5199 10.3565 33.8689 11.3573 33.8689 12.7622C33.8689 14.2056 31.5199 15.2256 29.0641 15.2256C28.3166 15.2256 27.5479 15.1294 26.8645 14.9369L13.8594 20.4027L23.1274 24.2325C25.3697 25.1563 27.2062 25.5605 29 25.5412C30.7938 25.5605 32.6303 25.1563 34.8726 24.2325L55.7364 15.6105C57.2312 14.9947 58 13.9169 58 12.7622C58 11.6267 57.2312 10.5105 55.7364 9.91385ZM13.7739 23.482V34.7406C17.4897 36.7421 22.7644 37.9546 29 37.9546C41.5353 37.9546 50.1414 33.0855 50.1414 27.0809V21.0185L36.1753 26.7922C33.5913 27.8507 31.2423 28.3896 29 28.3703C26.7791 28.3896 24.4087 27.8507 21.8247 26.7922L13.7739 23.482ZM7.85862 21.0378V27.0809C7.85862 28.7552 8.84094 30.7375 10.6134 32.4311V22.1733L7.85862 21.0378ZM8.73417 39.3018V44.2864C8.73417 45.9222 9.93004 47 11.7452 47H12.6421C14.4573 47 15.6318 45.9222 15.6318 44.2864V39.3018C15.6318 38.0316 14.9271 37.1078 13.7739 36.7421V34.7406C12.5353 34.067 11.4676 33.2972 10.6134 32.4311V36.7421C9.46024 37.0885 8.73417 38.0316 8.73417 39.3018Z" fill="#2A2A2A"/>
</svg>
